<svg width="330" height="330" fill="none" xmlns="http://www.w3.org/2000/svg"><circle cx="165" cy="165" r="155" fill="#F6F6F6" stroke="#fff" stroke-width="20"/><path d="M191.207 160.328l-7.076-.641c-9.035-.821-16.036-11.463-16.47-13.472a2.388 2.388 0 00-2.334-2.298 2.272 2.272 0 00-2.333 2.177v.123c-.434 2.007-7.433 12.653-16.47 13.472l-7.072.639a2.334 2.334 0 00-2.12 2.334v4.472a46.21 46.21 0 0027.032 41.982 2.334 2.334 0 001.932 0 46.213 46.213 0 0027.032-41.982v-4.472a2.334 2.334 0 00-2.121-2.334zm-2.545 6.797a41.545 41.545 0 01-23.332 37.301 41.543 41.543 0 01-23.332-37.292v-2.342l4.956-.448c7.963-.726 14.916-7.31 18.376-12.557 3.46 5.247 10.413 11.831 18.376 12.557l4.956.448v2.333z" fill="#0F0F0F"/><path d="M235.487 180.649a27.986 27.986 0 00-9.494-1.654 27.802 27.802 0 00-9.333 1.633v-69.296a2.334 2.334 0 00-2.333-2.333H183.83A16.358 16.358 0 00167.663 95h-4.666a16.359 16.359 0 00-16.167 13.999h-30.497a2.334 2.334 0 00-2.333 2.333v121.326a2.334 2.334 0 002.333 2.333h97.994a2.302 2.302 0 002.202-1.682c14.542 5.235 30.574-2.31 35.809-16.852 5.235-14.541-2.309-30.573-16.851-35.808zm-39.826-66.984h16.333v69.116a28.15 28.15 0 00-4.667 3.4v-65.516a2.333 2.333 0 00-2.333-2.333h-9.333v-4.667zm-55.996 0h9.333a2.333 2.333 0 002.333-2.333c.007-6.439 5.226-11.658 11.666-11.666h4.666c6.44.008 11.659 5.227 11.666 11.666a2.333 2.333 0 002.333 2.333h9.333v9.333h-51.33v-9.333zm-2.333 14h55.996a2.333 2.333 0 002.333-2.334v-2.333h7v68.551a27.833 27.833 0 00-.88 29.443h-73.782v-97.994h7v2.333a2.333 2.333 0 002.333 2.334zm-18.666 102.659V113.665h16.333v4.667h-9.333a2.333 2.333 0 00-2.333 2.333v102.66a2.333 2.333 0 002.333 2.333h79.328c.056 0 .105-.028.159-.033a28.14 28.14 0 005.396 4.699h-91.883zm107.327 0c-12.886 0-23.332-10.445-23.332-23.331s10.446-23.332 23.332-23.332c12.886 0 23.332 10.446 23.332 23.332-.016 12.879-10.453 23.316-23.332 23.331z" fill="#0F0F0F"/><path d="M242.325 197.659h-7v-7a2.333 2.333 0 00-2.333-2.333h-13.999a2.334 2.334 0 00-2.333 2.333v7h-7a2.333 2.333 0 00-2.333 2.333v13.999a2.334 2.334 0 002.333 2.333h7v7a2.334 2.334 0 002.333 2.333h13.999a2.333 2.333 0 002.333-2.333v-7h7a2.333 2.333 0 002.333-2.333v-13.999a2.332 2.332 0 00-2.333-2.333zm-2.333 13.999h-7a2.333 2.333 0 00-2.333 2.333v6.999h-9.333v-6.999a2.332 2.332 0 00-2.333-2.333h-7v-9.333h7a2.333 2.333 0 002.333-2.333v-6.999h9.333v6.999a2.334 2.334 0 002.333 2.333h7v9.333zm-58.334-44.33c-1.287 0-2.322 1.044-2.425 2.327a29.96 29.96 0 01-13.018 22.378c-1.091.742-1.474 2.21-.779 3.332.661 1.066 2.052 1.424 3.098.731a34.566 34.566 0 0015.38-26.432c.088-1.288-.965-2.336-2.256-2.336z" fill="#0F0F0F"/></svg>